<svg width="91" height="91" viewBox="0 0 91 91" fill="none" xmlns="http://www.w3.org/2000/svg">
<g clip-path="url(#clip0_406_89)">
<path d="M51.6197 2.70107L52.1783 3.31705C54.3552 5.70826 57.7259 6.61118 60.8058 5.62792L61.5977 5.37541C66.2424 3.89477 71.1549 6.72979 72.1956 11.4931L72.3716 12.3042C73.0641 15.4644 75.528 17.9321 78.6882 18.6208L79.4993 18.7968C84.2626 19.8375 87.0976 24.75 85.617 29.3947L85.3645 30.1866C84.385 33.2665 85.2879 36.6372 87.6753 38.8141L88.2913 39.3727C91.8953 42.6554 91.8953 48.3254 88.2913 51.6081L87.6753 52.1667C85.2841 54.3436 84.3812 57.7143 85.3645 60.7941L85.617 61.5861C87.0976 66.2308 84.2626 71.1433 79.4993 72.184L78.6882 72.36C75.528 73.0525 73.0602 75.5164 72.3716 78.6766L72.1956 79.4877C71.1549 84.251 66.2424 87.086 61.5977 85.6054L60.8058 85.3529C57.7259 84.3734 54.3552 85.2763 52.1783 87.6637L51.6197 88.2797C48.337 91.8837 42.667 91.8837 39.3843 88.2797L38.8257 87.6637C36.6488 85.2725 33.2781 84.3696 30.1982 85.3529L29.4063 85.6054C24.7616 87.086 19.8491 84.251 18.8084 79.4877L18.6324 78.6766C17.9399 75.5164 15.476 73.0486 12.3158 72.36L11.5047 72.184C6.74139 71.1433 3.90636 66.2308 5.387 61.5861L5.63951 60.7941C6.61896 57.7143 5.71603 54.3436 3.32865 52.1667L2.71267 51.6081C-0.891365 48.3254 -0.891365 42.6554 2.71267 39.3727L3.32865 38.8141C5.71986 36.6372 6.62278 33.2665 5.63951 30.1866L5.387 29.3947C3.90636 24.75 6.74139 19.8375 11.5047 18.7968L12.3158 18.6208C15.476 17.9283 17.9437 15.4644 18.6324 12.3042L18.8084 11.4931C19.8491 6.72979 24.7616 3.89477 29.4063 5.37541L30.1982 5.62792C33.2781 6.60736 36.6488 5.70444 38.8257 3.31705L39.3843 2.70107C42.667 -0.902962 48.337 -0.902962 51.6197 2.70107Z" fill="#E3322D"/>
<path d="M38.1164 40H26.6256V36.8641L31.6614 32.6752C32.5312 31.9275 33.1569 31.2789 33.5384 30.7295C33.9199 30.1802 34.1106 29.6003 34.1106 28.9899V28.761C34.1106 28.0896 33.9122 27.586 33.5155 27.2503C33.1187 26.8993 32.5846 26.7238 31.9132 26.7238C31.1502 26.7238 30.5627 26.9451 30.1506 27.3876C29.7386 27.8302 29.4487 28.3566 29.2808 28.967L26.2822 27.8225C26.4654 27.2732 26.7171 26.7543 27.0376 26.266C27.3581 25.7624 27.7625 25.3275 28.2508 24.9613C28.7544 24.595 29.3342 24.3051 29.9904 24.0914C30.6466 23.8625 31.402 23.7481 32.2565 23.7481C33.1263 23.7481 33.9046 23.8702 34.5913 24.1143C35.278 24.3585 35.8579 24.6942 36.3309 25.1215C36.804 25.5488 37.1626 26.06 37.4068 26.6551C37.6509 27.235 37.773 27.8683 37.773 28.555C37.773 29.2264 37.6586 29.8445 37.4297 30.4091C37.216 30.9584 36.9108 31.4773 36.5141 31.9656C36.1326 32.4539 35.6748 32.927 35.1407 33.3848C34.6218 33.8426 34.0648 34.3004 33.4697 34.7582L30.4253 37.1159H38.1164V40ZM51.1547 27.0214H43.7613L43.395 32.0801H43.601C43.7689 31.7138 43.9596 31.3781 44.1733 31.0729C44.3869 30.7524 44.6387 30.4854 44.9286 30.2717C45.2186 30.0428 45.5543 29.8674 45.9358 29.7453C46.3173 29.6232 46.7522 29.5622 47.2405 29.5622C47.8967 29.5622 48.5147 29.6766 49.0946 29.9055C49.6898 30.1344 50.2086 30.4701 50.6511 30.9127C51.1089 31.3399 51.4676 31.874 51.727 32.515C51.9864 33.1406 52.1161 33.8502 52.1161 34.6437C52.1161 35.4525 51.9788 36.2003 51.7041 36.887C51.4294 37.5737 51.025 38.1688 50.4909 38.6724C49.9721 39.176 49.3235 39.5727 48.5453 39.8627C47.767 40.1373 46.8819 40.2747 45.89 40.2747C45.1118 40.2747 44.4174 40.1907 43.807 40.0229C43.1966 39.855 42.6549 39.6338 42.1818 39.3591C41.724 39.0691 41.3197 38.741 40.9687 38.3748C40.633 37.9933 40.343 37.6042 40.0989 37.2074L42.5939 35.2389C42.777 35.5441 42.9677 35.834 43.1661 36.1087C43.3798 36.3834 43.6163 36.6275 43.8757 36.8412C44.1504 37.0396 44.448 37.1998 44.7684 37.3219C45.1041 37.4287 45.4856 37.4821 45.9129 37.4821C46.7675 37.4821 47.4084 37.2532 47.8357 36.7954C48.2782 36.3223 48.4995 35.6967 48.4995 34.9184V34.7353C48.4995 33.9876 48.2782 33.4 47.8357 32.9728C47.3931 32.5455 46.7827 32.3319 46.0045 32.3319C45.3636 32.3319 44.8295 32.4616 44.4022 32.721C43.9902 32.9651 43.6773 33.2093 43.4637 33.4535L40.6482 33.0643L41.2434 24.0228H51.1547V27.0214ZM56.6394 32.2632C55.4949 32.2632 54.6098 31.8893 53.9841 31.1416C53.3585 30.3786 53.0456 29.3333 53.0456 28.0056C53.0456 26.678 53.3585 25.6403 53.9841 24.8926C54.6098 24.1296 55.4949 23.7481 56.6394 23.7481C57.7839 23.7481 58.669 24.1296 59.2946 24.8926C59.9203 25.6403 60.2331 26.678 60.2331 28.0056C60.2331 29.3333 59.9203 30.3786 59.2946 31.1416C58.669 31.8893 57.7839 32.2632 56.6394 32.2632ZM56.6394 30.2717C57.0819 30.2717 57.3871 30.1115 57.555 29.7911C57.7381 29.4706 57.8297 29.0433 57.8297 28.5092V27.5021C57.8297 26.968 57.7381 26.5407 57.555 26.2202C57.3871 25.8998 57.0819 25.7395 56.6394 25.7395C56.1968 25.7395 55.884 25.8998 55.7009 26.2202C55.533 26.5407 55.4491 26.968 55.4491 27.5021V28.5092C55.4491 29.0433 55.533 29.4706 55.7009 29.7911C55.884 30.1115 56.1968 30.2717 56.6394 30.2717ZM63.9642 24.0228H66.5508L63.0944 30.8898H60.5078L63.9642 24.0228ZM56.3647 33.133H58.9513L55.4949 40H52.9083L56.3647 33.133ZM62.8426 40.2747C61.6981 40.2747 60.813 39.9008 60.1873 39.1531C59.5617 38.3901 59.2488 37.3448 59.2488 36.0171C59.2488 34.6895 59.5617 33.6518 60.1873 32.9041C60.813 32.1411 61.6981 31.7596 62.8426 31.7596C63.9871 31.7596 64.8722 32.1411 65.4978 32.9041C66.1235 33.6518 66.4363 34.6895 66.4363 36.0171C66.4363 37.3448 66.1235 38.3901 65.4978 39.1531C64.8722 39.9008 63.9871 40.2747 62.8426 40.2747ZM62.8426 38.2832C63.2851 38.2832 63.5903 38.123 63.7582 37.8026C63.9413 37.4821 64.0329 37.0548 64.0329 36.5207V35.5136C64.0329 34.9795 63.9413 34.5522 63.7582 34.2317C63.5903 33.9113 63.2851 33.751 62.8426 33.751C62.4 33.751 62.0872 33.9113 61.9041 34.2317C61.7362 34.5522 61.6523 34.9795 61.6523 35.5136V36.5207C61.6523 37.0548 61.7362 37.4821 61.9041 37.8026C62.0872 38.123 62.4 38.2832 62.8426 38.2832ZM32.2794 70.2747C30.143 70.2747 28.5636 69.5498 27.5412 68.1001C26.534 66.6504 26.0304 64.6209 26.0304 62.0114C26.0304 59.4019 26.534 57.3723 27.5412 55.9227C28.5636 54.4729 30.143 53.7481 32.2794 53.7481C34.4158 53.7481 35.9876 54.4729 36.9948 55.9227C38.0172 57.3723 38.5284 59.4019 38.5284 62.0114C38.5284 64.6209 38.0172 66.6504 36.9948 68.1001C35.9876 69.5498 34.4158 70.2747 32.2794 70.2747ZM32.2794 67.505C33.2561 67.505 33.9275 67.1464 34.2937 66.4292C34.6752 65.6967 34.866 64.6819 34.866 63.3848V60.6151C34.866 59.3333 34.6752 58.3337 34.2937 57.6165C33.9275 56.884 33.2561 56.5178 32.2794 56.5178C31.3028 56.5178 30.6237 56.884 30.2422 57.6165C29.876 58.3337 29.6928 59.3333 29.6928 60.6151V63.4077C29.6928 64.6895 29.876 65.6967 30.2422 66.4292C30.6237 67.1464 31.3028 67.505 32.2794 67.505ZM40.9687 70V54.0228H51.5667V56.8382H44.4022V60.5006H50.8114V63.3161H44.4022V70H40.9687ZM54.6937 70V54.0228H65.2918V56.8382H58.1272V60.5006H64.5364V63.3161H58.1272V70H54.6937Z" fill="white"/>
</g>
<defs>
<clipPath id="clip0_406_89">
<rect width="91" height="91" fill="white"/>
</clipPath>
</defs>
</svg>
