<svg width="26" height="27" viewBox="0 0 26 27" fill="none" xmlns="http://www.w3.org/2000/svg">
<path d="M13 0.5C10.4288 0.5 7.91543 1.26244 5.77759 2.69089C3.63975 4.11935 1.97351 6.14968 0.989572 8.52511C0.0056327 10.9006 -0.251811 13.5144 0.249797 16.0362C0.751405 18.5579 1.98953 20.8743 3.80762 22.6924C5.6257 24.5105 7.94208 25.7486 10.4638 26.2502C12.9856 26.7518 15.5994 26.4944 17.9749 25.5104C20.3503 24.5265 22.3807 22.8603 23.8091 20.7224C25.2376 18.5846 26 16.0712 26 13.5C25.9964 10.0533 24.6256 6.74882 22.1884 4.31163C19.7512 1.87445 16.4467 0.50364 13 0.5ZM13 24.5C10.8244 24.5 8.69767 23.8549 6.88873 22.6462C5.07979 21.4375 3.66989 19.7195 2.83733 17.7095C2.00477 15.6995 1.78693 13.4878 2.21137 11.354C2.6358 9.22021 3.68345 7.2602 5.22183 5.72183C6.76021 4.18345 8.72022 3.1358 10.854 2.71136C12.9878 2.28692 15.1995 2.50476 17.2095 3.33732C19.2195 4.16989 20.9375 5.57979 22.1462 7.38873C23.3549 9.19767 24 11.3244 24 13.5C23.9967 16.4164 22.8367 19.2123 20.7745 21.2745C18.7123 23.3367 15.9164 24.4967 13 24.5ZM15 19.5C15 19.7652 14.8946 20.0196 14.7071 20.2071C14.5196 20.3946 14.2652 20.5 14 20.5C13.4696 20.5 12.9609 20.2893 12.5858 19.9142C12.2107 19.5391 12 19.0304 12 18.5V13.5C11.7348 13.5 11.4804 13.3946 11.2929 13.2071C11.1054 13.0196 11 12.7652 11 12.5C11 12.2348 11.1054 11.9804 11.2929 11.7929C11.4804 11.6054 11.7348 11.5 12 11.5C12.5304 11.5 13.0391 11.7107 13.4142 12.0858C13.7893 12.4609 14 12.9696 14 13.5V18.5C14.2652 18.5 14.5196 18.6054 14.7071 18.7929C14.8946 18.9804 15 19.2348 15 19.5ZM11 8C11 7.70333 11.088 7.41332 11.2528 7.16664C11.4176 6.91997 11.6519 6.72771 11.926 6.61418C12.2001 6.50065 12.5017 6.47094 12.7926 6.52882C13.0836 6.5867 13.3509 6.72956 13.5607 6.93934C13.7704 7.14912 13.9133 7.41639 13.9712 7.70736C14.0291 7.99834 13.9994 8.29994 13.8858 8.57402C13.7723 8.84811 13.58 9.08238 13.3334 9.2472C13.0867 9.41203 12.7967 9.5 12.5 9.5C12.1022 9.5 11.7206 9.34196 11.4393 9.06066C11.158 8.77936 11 8.39782 11 8Z" fill="#692727"/>
</svg>
