<svg width="156" height="28" viewBox="0 0 156 28" fill="none" xmlns="http://www.w3.org/2000/svg">
<g clip-path="url(#clip0_222_169)">
<path d="M155.5 26.1698V10.9007C155.5 9.68407 154.524 9.13715 154.524 9.13715C153.071 8.06564 149.855 6.20164 146.085 5.91144C145.164 5.84447 144.377 5.84447 144.322 5.85563C137.723 6.10119 133.576 10.9007 133.576 17.0508C133.576 23.2008 137.989 27.6097 143.745 27.6097C143.745 27.6097 147.837 27.6097 149.878 25.4666V26.181C149.878 26.7725 150.166 27.1409 150.942 27.1409H154.58C155.589 27.1409 155.5 26.3372 155.5 26.1586V26.1698ZM148.957 20.8234C148.336 21.7498 147.371 22.386 146.196 22.6874C145.32 22.9218 144.654 22.8771 144.654 22.8771C141.616 22.8771 139.154 21.0801 139.154 16.6824C139.154 13.2893 141.427 10.7333 144.244 10.7333H144.61C146.795 10.7333 148.591 11.7267 149.412 12.2066C149.756 12.4075 149.844 12.8093 149.844 12.8093C150.443 16.0574 150.022 19.2161 148.946 20.8234H148.957Z" fill="#282828"/>
<path d="M96.1815 5.63281C92.5441 5.63281 88.8734 7.01686 87.0658 7.80933C87.0215 7.83165 85.9236 8.37858 85.9236 9.78494V26.0586C85.9236 26.0586 85.9236 27.1413 87.1656 27.1413H90.304C91.546 27.1413 91.546 26.0586 91.546 26.0586V11.3364C91.546 11.3364 93.7418 10.2649 96.1815 10.2649C99.0759 10.2649 100.983 11.8275 100.983 15.3658V26.0474C100.983 26.0474 100.983 27.1301 102.225 27.1301H105.364C106.606 27.1301 106.606 26.0474 106.606 26.0474V14.9081C106.606 9.03711 101.261 5.63281 96.1815 5.63281Z" fill="#282828"/>
<path d="M37.3398 1.61441V22.5536C37.3398 23.7703 38.3379 24.3172 38.3379 24.3172C39.7907 25.3887 43.0067 27.2527 46.7771 27.5429C47.6976 27.6099 48.4738 27.6099 48.5404 27.5987C55.1387 27.3531 59.2863 22.3416 59.2863 16.1915C59.2863 10.0414 54.8726 5.6326 49.117 5.6326C49.117 5.6326 46.3003 5.45401 42.9845 6.86038V1.56976C42.9845 1.03401 42.552 0.609863 42.0308 0.609863H38.3157C37.7834 0.609863 37.362 1.04517 37.362 1.56976V1.60325H37.3398V1.61441ZM48.5958 22.5202H48.2188C46.0341 22.5202 44.2376 21.5268 43.417 21.0468C43.1508 20.8906 43.0288 20.6338 42.9845 20.3883C42.7738 19.6628 42.6961 18.6806 42.674 17.743C42.1306 9.82938 48.1855 10.3763 48.1855 10.3763C51.2241 10.3763 53.6749 12.1733 53.6749 16.571C53.6749 19.9641 51.4015 22.5202 48.5847 22.5202H48.5958Z" fill="#282828"/>
<path d="M72.4496 5.63281C65.1416 5.63281 61.2269 10.7002 61.2269 17.0065C61.2269 22.5762 65.1305 27.6101 71.9395 27.6101C79.2476 27.6101 83.1623 22.5873 83.1623 16.2699C83.1623 10.7002 79.2587 5.63281 72.4496 5.63281ZM72.4496 22.9333C68.7124 22.9333 67.0712 20.4443 67.0712 16.2699C67.0712 12.7986 68.7124 10.3095 71.9506 10.3095C75.6435 10.3095 77.3291 12.7986 77.3291 17.0065C77.3291 20.4331 75.7322 22.9333 72.4496 22.9333Z" fill="#282828"/>
<path d="M131.058 1.56976C131.058 1.04517 130.626 0.609863 130.094 0.609863H126.379C125.846 0.609863 125.425 1.04517 125.425 1.56976V6.86038C122.109 5.45401 119.292 5.6326 119.292 5.6326C113.537 5.6326 109.123 9.9968 109.123 16.1915C109.123 22.3862 113.282 27.3531 119.869 27.5987C119.924 27.5987 120.712 27.5987 121.632 27.5429C125.403 27.2527 128.608 25.3887 130.072 24.3283C130.072 24.3283 131.07 23.7703 131.07 22.5536V1.58093H131.058V1.56976ZM114.712 16.5598C114.712 12.1622 117.163 10.3651 120.202 10.3651C120.202 10.3651 126.246 9.81821 125.713 17.7318C125.702 18.6694 125.625 19.6516 125.403 20.3771C125.347 20.6227 125.236 20.8794 124.97 21.0357C124.15 21.5268 122.353 22.509 120.168 22.509H119.791C116.975 22.509 114.701 19.953 114.701 16.5598H114.712Z" fill="#282828"/>
<path d="M9.30519 16.5375H0.610911C0.455656 15.5776 0.455656 14.5507 0.666359 13.5015C1.42046 9.76235 4.61427 6.9273 8.40693 6.68174C10.6027 6.5478 12.6432 7.25098 14.2179 8.52341C11.5564 10.2981 9.70442 13.189 9.31628 16.5375H9.30519Z" fill="#BC92FF"/>
<path d="M31.8948 23.3687C31.8948 16.5378 31.8948 7.85401 23.2781 5.84491C20.0178 5.08592 16.8129 6.86062 14.2068 8.59067C17.079 10.9011 19.5631 14.6849 18.9199 23.3352L31.8948 23.3798V23.3687Z" fill="#824AED"/>
</g>
<defs>
<clipPath id="clip0_222_169">
<rect width="155" height="27" fill="white" transform="translate(0.5 0.609863)"/>
</clipPath>
</defs>
</svg>
