<svg width="24" height="29" viewBox="0 0 24 29" fill="none" xmlns="http://www.w3.org/2000/svg">
<path d="M24 8.34033V8.46533C24 9.79141 23.4732 11.0632 22.5355 12.0009C21.5979 12.9385 20.3261 13.4653 19 13.4653H14V23.4653H15C15.4052 23.4655 15.8009 23.3427 16.1347 23.113C16.4685 22.8833 16.7247 22.5576 16.8693 22.1791C17.0139 21.8006 17.0402 21.387 16.9445 20.9933C16.8489 20.5995 16.6359 20.2441 16.3337 19.9741C16.1461 19.7948 16.0355 19.5496 16.0253 19.2903C16.0151 19.031 16.1062 18.7779 16.2792 18.5844C16.4522 18.391 16.6936 18.2724 16.9524 18.2537C17.2112 18.2349 17.4672 18.3176 17.6663 18.4841C18.27 19.0241 18.6955 19.7348 18.8865 20.5219C19.0776 21.3091 19.0251 22.1357 18.7361 22.8925C18.4471 23.6492 17.9352 24.3003 17.2681 24.7597C16.6009 25.2192 15.81 25.4652 15 25.4653H14V27.4653C14 27.7305 13.8946 27.9849 13.7071 28.1724C13.5196 28.36 13.2652 28.4653 13 28.4653C12.7348 28.4653 12.4804 28.36 12.2929 28.1724C12.1054 27.9849 12 27.7305 12 27.4653V25.4653H9C8.73478 25.4653 8.48043 25.36 8.29289 25.1724C8.10536 24.9849 8 24.7305 8 24.4653C8 24.2001 8.10536 23.9458 8.29289 23.7582C8.48043 23.5707 8.73478 23.4653 9 23.4653H12V13.4653H9C8.46957 13.4653 7.96086 13.676 7.58579 14.0511C7.21071 14.4262 7 14.9349 7 15.4653C7 15.9958 7.21071 16.5045 7.58579 16.8795C7.96086 17.2546 8.46957 17.4653 9 17.4653C9.26522 17.4653 9.51957 17.5707 9.70711 17.7582C9.89464 17.9458 10 18.2001 10 18.4653C10 18.7305 9.89464 18.9849 9.70711 19.1724C9.51957 19.36 9.26522 19.4653 9 19.4653C7.93913 19.4653 6.92172 19.0439 6.17157 18.2938C5.42143 17.5436 5 16.5262 5 15.4653C5 14.4045 5.42143 13.3871 6.17157 12.6369C6.92172 11.8868 7.93913 11.4653 9 11.4653H12V1.46533C12 1.20012 12.1054 0.945762 12.2929 0.758225C12.4804 0.570689 12.7348 0.465332 13 0.465332C13.2652 0.465332 13.5196 0.570689 13.7071 0.758225C13.8946 0.945762 14 1.20012 14 1.46533V11.4653H19C19.7956 11.4653 20.5587 11.1493 21.1213 10.5867C21.6839 10.024 22 9.26098 22 8.46533V8.34033C22 7.57783 21.6971 6.84657 21.1579 6.3074C20.6188 5.76823 19.8875 5.46533 19.125 5.46533H17C16.7348 5.46533 16.4804 5.35997 16.2929 5.17244C16.1054 4.9849 16 4.73055 16 4.46533C16 4.20012 16.1054 3.94576 16.2929 3.75823C16.4804 3.57069 16.7348 3.46533 17 3.46533H19.125C20.4179 3.46533 21.6579 3.97895 22.5721 4.89319C23.4864 5.80743 24 7.0474 24 8.34033ZM4 10.4653H1C0.734784 10.4653 0.48043 10.36 0.292893 10.1724C0.105357 9.9849 0 9.73055 0 9.46533V8.46533C0 7.13925 0.526784 5.86748 1.46447 4.9298C2.40215 3.99212 3.67392 3.46533 5 3.46533H9C9.26522 3.46533 9.51957 3.57069 9.70711 3.75823C9.89464 3.94576 10 4.20012 10 4.46533C10 4.73055 9.89464 4.9849 9.70711 5.17244C9.51957 5.35997 9.26522 5.46533 9 5.46533C9 6.12194 8.87067 6.77212 8.6194 7.37875C8.36812 7.98538 7.99983 8.53657 7.53553 9.00087C7.07124 9.46516 6.52004 9.83346 5.91342 10.0847C5.30679 10.336 4.65661 10.4653 4 10.4653ZM7 5.46533H5C4.20435 5.46533 3.44129 5.7814 2.87868 6.34401C2.31607 6.90662 2 7.66968 2 8.46533H4C4.79565 8.46533 5.55871 8.14926 6.12132 7.58665C6.68393 7.02404 7 6.26098 7 5.46533Z" fill="#692727"/>
</svg>
