<svg width="28" height="25" viewBox="0 0 28 25" fill="none" xmlns="http://www.w3.org/2000/svg">
<path d="M27.125 5.17283L24.7075 2.75783C24.5199 2.57019 24.2654 2.46478 24 2.46478C23.7346 2.46478 23.4801 2.57019 23.2925 2.75783C23.1049 2.94547 22.9994 3.19997 22.9994 3.46533C22.9994 3.7307 23.1049 3.98519 23.2925 4.17283L25.7075 6.59033C25.8941 6.77711 25.9992 7.03009 26 7.29408V17.4653C26 17.7305 25.8946 17.9849 25.7071 18.1724C25.5196 18.36 25.2652 18.4653 25 18.4653C24.7348 18.4653 24.4804 18.36 24.2929 18.1724C24.1054 17.9849 24 17.7305 24 17.4653V12.4653C24 11.6697 23.6839 10.9066 23.1213 10.344C22.5587 9.7814 21.7956 9.46533 21 9.46533H19V3.46533C19 2.66968 18.6839 1.90662 18.1213 1.34401C17.5587 0.781403 16.7956 0.465332 16 0.465332H6C5.20435 0.465332 4.44129 0.781403 3.87868 1.34401C3.31607 1.90662 3 2.66968 3 3.46533V22.4653H1C0.734784 22.4653 0.48043 22.5707 0.292893 22.7582C0.105357 22.9458 0 23.2001 0 23.4653C0 23.7305 0.105357 23.9849 0.292893 24.1724C0.48043 24.36 0.734784 24.4653 1 24.4653H21C21.2652 24.4653 21.5196 24.36 21.7071 24.1724C21.8946 23.9849 22 23.7305 22 23.4653C22 23.2001 21.8946 22.9458 21.7071 22.7582C21.5196 22.5707 21.2652 22.4653 21 22.4653H19V11.4653H21C21.2652 11.4653 21.5196 11.5707 21.7071 11.7582C21.8946 11.9458 22 12.2001 22 12.4653V17.4653C22 18.261 22.3161 19.024 22.8787 19.5867C23.4413 20.1493 24.2044 20.4653 25 20.4653C25.7956 20.4653 26.5587 20.1493 27.1213 19.5867C27.6839 19.024 28 18.261 28 17.4653V7.29408C28.0015 6.90023 27.9249 6.50999 27.7748 6.1459C27.6246 5.78181 27.4037 5.45108 27.125 5.17283ZM5 22.4653V3.46533C5 3.20012 5.10536 2.94576 5.29289 2.75823C5.48043 2.57069 5.73478 2.46533 6 2.46533H16C16.2652 2.46533 16.5196 2.57069 16.7071 2.75823C16.8946 2.94576 17 3.20012 17 3.46533V22.4653H5ZM15 10.4653C15 10.7305 14.8946 10.9849 14.7071 11.1724C14.5196 11.36 14.2652 11.4653 14 11.4653H8C7.73478 11.4653 7.48043 11.36 7.29289 11.1724C7.10536 10.9849 7 10.7305 7 10.4653C7 10.2001 7.10536 9.94576 7.29289 9.75823C7.48043 9.57069 7.73478 9.46533 8 9.46533H14C14.2652 9.46533 14.5196 9.57069 14.7071 9.75823C14.8946 9.94576 15 10.2001 15 10.4653Z" fill="#692727"/>
</svg>
